<svg version="1.1" xmlns="http://www.w3.org/2000/svg" xmlns:xlink="http://www.w3.org/1999/xlink" width="64px" height="64px" viewBox="0,0,256,256"><g fill="none" fill-rule="nonzero" stroke="none" stroke-width="none" stroke-linecap="none" stroke-linejoin="none" stroke-miterlimit="10" stroke-dasharray="" stroke-dashoffset="0" font-family="none" font-weight="none" font-size="none" text-anchor="none" style="mix-blend-mode: normal"><g transform="scale(10.66667,10.66667)"><g id="SVGRepo_bgCarrier" stroke="none" stroke-width="0" stroke-linecap="butt" stroke-linejoin="miter" font-family="Inter, apple-system, BlinkMacSystemFont, &quot;Helvetica Neue&quot;, &quot;Segoe UI&quot;, &quot;Fira Sans&quot;, Roboto, Oxygen, Ubuntu, &quot;Droid Sans&quot;, Arial, sans-serif" font-weight="400" font-size="16" text-anchor="start"></g><g id="SVGRepo_tracerCarrier" stroke="none" stroke-width="1" stroke-linecap="round" stroke-linejoin="round" font-family="Inter, apple-system, BlinkMacSystemFont, &quot;Helvetica Neue&quot;, &quot;Segoe UI&quot;, &quot;Fira Sans&quot;, Roboto, Oxygen, Ubuntu, &quot;Droid Sans&quot;, Arial, sans-serif" font-weight="400" font-size="16" text-anchor="start"></g><g id="SVGRepo_iconCarrier" stroke="#812c40" stroke-width="2" stroke-linecap="round" stroke-linejoin="round"><path d="M8,16v-5M12,16v-2M12,11v3M16,16v-2c0,-1.5 -0.5,-3 -2,-3c-1.5,0 -2,1.5 -2,3M7.99,8h0.01M6,20h12c1.1046,0 2,-0.8954 2,-2v-12c0,-1.10457 -0.8954,-2 -2,-2h-12c-1.10457,0 -2,0.89543 -2,2v12c0,1.1046 0.89543,2 2,2z"></path></g></g></g></svg>