<svg version="1.1" xmlns="http://www.w3.org/2000/svg" xmlns:xlink="http://www.w3.org/1999/xlink" width="20px" height="20px" viewBox="0,0,256,256"><g fill="#812c40" fill-rule="nonzero" stroke="none" stroke-width="1" stroke-linecap="butt" stroke-linejoin="miter" stroke-miterlimit="10" stroke-dasharray="" stroke-dashoffset="0" font-family="none" font-weight="none" font-size="none" text-anchor="none" style="mix-blend-mode: normal"><g transform="scale(12.8,12.8)"><path d="M10,0c-5.5,0 -10,4.5 -10,10c0,5.5 4.5,10 10,10c5.5,0 10,-4.5 10,-10c0,-5.5 -4.5,-10 -10,-10zM15.3,14.7l-0.8,0.8c-0.1,0.1 -0.6,0.2 -0.6,0.2c-2.6,0 -5.1,-1 -6.9,-2.8c-1.8,-1.8 -2.9,-4.4 -2.8,-7c0,0 0.1,-0.4 0.2,-0.6l0.8,-0.8c0.3,-0.2 0.8,-0.4 1.2,-0.2l0.2,0.1c0.4,0.1 0.8,0.6 0.9,1l0.5,1.4c0.1,0.4 0,1 -0.3,1.3l-0.6,0.6c0.5,2 2.1,3.6 4.1,4.1l0.6,-0.5c0.3,-0.3 0.9,-0.5 1.3,-0.3l1.5,0.4c0.4,0.1 0.9,0.5 1,0.9l0.1,0.2c0.1,0.3 -0.1,0.9 -0.4,1.2z"></path></g></g></svg>